<svg id="レイヤー_1" data-name="レイヤー 1" xmlns="http://www.w3.org/2000/svg" viewBox="0 0 652.03 973.16"><defs><style>.cls-1{opacity:0.27;}.cls-2{fill:#6fd5da;}</style></defs><g class="cls-1"><path class="cls-2" d="M283.14,734.68,466.75,551.07a15.19,15.19,0,0,0-21.48-21.48L261.66,713.2a15.19,15.19,0,1,0,21.48,21.48Z" transform="translate(-173.98 -12.31)"/><path class="cls-2" d="M554.88,430.21a10.37,10.37,0,0,0,14.65,0L694.72,305a10.36,10.36,0,0,0-14.65-14.64L554.88,415.56A10.37,10.37,0,0,0,554.88,430.21Z" transform="translate(-173.98 -12.31)"/><path class="cls-2" d="M502,502a5.14,5.14,0,1,1-5.14-5.14A5.14,5.14,0,0,1,502,502Z" transform="translate(-173.98 -12.31)"/><path class="cls-2" d="M543.8,464.1A14.77,14.77,0,1,1,529,449.33,14.77,14.77,0,0,1,543.8,464.1Z" transform="translate(-173.98 -12.31)"/><path class="cls-2" d="M276.86,819,460.47,635.41A15.19,15.19,0,0,0,439,613.93L255.38,797.54A15.19,15.19,0,0,0,276.86,819Z" transform="translate(-173.98 -12.31)"/><path class="cls-2" d="M548.6,514.54a10.35,10.35,0,0,0,14.65,0L688.44,389.35a10.36,10.36,0,1,0-14.65-14.65L548.6,499.9A10.36,10.36,0,0,0,548.6,514.54Z" transform="translate(-173.98 -12.31)"/><path class="cls-2" d="M495.76,586.36a5.14,5.14,0,1,1-5.14-5.14A5.14,5.14,0,0,1,495.76,586.36Z" transform="translate(-173.98 -12.31)"/><path class="cls-2" d="M537.52,548.44a14.77,14.77,0,1,1-14.77-14.77A14.77,14.77,0,0,1,537.52,548.44Z" transform="translate(-173.98 -12.31)"/><path class="cls-2" d="M270.58,903.36,454.19,719.74a15.19,15.19,0,0,0-21.48-21.48L249.1,881.87a15.19,15.19,0,1,0,21.48,21.49Z" transform="translate(-173.98 -12.31)"/><path class="cls-2" d="M542.32,598.88a10.37,10.37,0,0,0,14.65,0L682.16,473.69A10.36,10.36,0,1,0,667.51,459L542.32,584.23A10.37,10.37,0,0,0,542.32,598.88Z" transform="translate(-173.98 -12.31)"/><path class="cls-2" d="M489.48,670.69a5.14,5.14,0,1,1-5.14-5.13A5.14,5.14,0,0,1,489.48,670.69Z" transform="translate(-173.98 -12.31)"/><path class="cls-2" d="M531.24,632.78A14.77,14.77,0,1,1,516.47,618,14.77,14.77,0,0,1,531.24,632.78Z" transform="translate(-173.98 -12.31)"/><path class="cls-2" d="M411.41,839.46,595,655.84a15.19,15.19,0,0,0-21.48-21.48L389.92,818a15.2,15.2,0,0,0,21.49,21.49Z" transform="translate(-173.98 -12.31)"/><path class="cls-2" d="M683.15,535a10.36,10.36,0,0,0,14.64,0L823,409.79a10.36,10.36,0,1,0-14.64-14.65L683.15,520.33A10.35,10.35,0,0,0,683.15,535Z" transform="translate(-173.98 -12.31)"/><path class="cls-2" d="M630.3,606.79a5.14,5.14,0,1,1-5.13-5.13A5.14,5.14,0,0,1,630.3,606.79Z" transform="translate(-173.98 -12.31)"/><path class="cls-2" d="M672.06,568.88a14.77,14.77,0,1,1-14.77-14.78A14.76,14.76,0,0,1,672.06,568.88Z" transform="translate(-173.98 -12.31)"/><path class="cls-2" d="M357.51,981,541.12,797.41a15.19,15.19,0,0,0-21.48-21.49L336,959.54A15.19,15.19,0,0,0,357.51,981Z" transform="translate(-173.98 -12.31)"/><path class="cls-2" d="M629.25,676.54a10.37,10.37,0,0,0,14.65,0L769.08,551.35a10.36,10.36,0,0,0-14.64-14.65L629.25,661.9A10.34,10.34,0,0,0,629.25,676.54Z" transform="translate(-173.98 -12.31)"/><path class="cls-2" d="M576.41,748.35a5.14,5.14,0,1,1-5.14-5.13A5.14,5.14,0,0,1,576.41,748.35Z" transform="translate(-173.98 -12.31)"/><path class="cls-2" d="M618.17,710.44a14.77,14.77,0,1,1-14.77-14.77A14.77,14.77,0,0,1,618.17,710.44Z" transform="translate(-173.98 -12.31)"/><path class="cls-2" d="M199.92,744.65,383.53,561a15.19,15.19,0,0,0-21.48-21.48L178.43,723.16a15.2,15.2,0,0,0,21.49,21.49Z" transform="translate(-173.98 -12.31)"/><path class="cls-2" d="M471.65,440.17a10.37,10.37,0,0,0,14.65,0L611.49,315a10.36,10.36,0,0,0-14.65-14.65L471.65,425.52A10.37,10.37,0,0,0,471.65,440.17Z" transform="translate(-173.98 -12.31)"/><path class="cls-2" d="M418.81,512a5.14,5.14,0,1,1-5.13-5.14A5.14,5.14,0,0,1,418.81,512Z" transform="translate(-173.98 -12.31)"/><path class="cls-2" d="M460.57,474.06a14.77,14.77,0,1,1-14.77-14.77A14.77,14.77,0,0,1,460.57,474.06Z" transform="translate(-173.98 -12.31)"/><path class="cls-2" d="M199.92,654.69,383.53,471.08a15.19,15.19,0,0,0-21.48-21.48L178.43,633.21a15.19,15.19,0,0,0,21.49,21.48Z" transform="translate(-173.98 -12.31)"/><path class="cls-2" d="M471.65,350.21a10.37,10.37,0,0,0,14.65,0L611.49,225a10.36,10.36,0,0,0-14.65-14.65L471.65,335.56A10.37,10.37,0,0,0,471.65,350.21Z" transform="translate(-173.98 -12.31)"/><path class="cls-2" d="M418.81,422a5.14,5.14,0,1,1-5.13-5.14A5.13,5.13,0,0,1,418.81,422Z" transform="translate(-173.98 -12.31)"/><path class="cls-2" d="M460.57,384.11a14.77,14.77,0,1,1-14.77-14.77A14.77,14.77,0,0,1,460.57,384.11Z" transform="translate(-173.98 -12.31)"/><path class="cls-2" d="M302.56,459.65,486.17,276a15.19,15.19,0,0,0-21.48-21.48L281.08,438.17a15.19,15.19,0,0,0,21.48,21.48Z" transform="translate(-173.98 -12.31)"/><path class="cls-2" d="M574.3,155.18a10.37,10.37,0,0,0,14.65,0L714.14,30a10.36,10.36,0,1,0-14.65-14.65L574.3,140.53A10.37,10.37,0,0,0,574.3,155.18Z" transform="translate(-173.98 -12.31)"/><path class="cls-2" d="M521.46,227a5.14,5.14,0,1,1-5.14-5.14A5.14,5.14,0,0,1,521.46,227Z" transform="translate(-173.98 -12.31)"/><path class="cls-2" d="M563.22,189.07a14.77,14.77,0,1,1-14.77-14.77A14.77,14.77,0,0,1,563.22,189.07Z" transform="translate(-173.98 -12.31)"/></g></svg>