<?xml version="1.0" encoding="utf-8"?>
<!-- Generator: Adobe Illustrator 26.0.1, SVG Export Plug-In . SVG Version: 6.00 Build 0)  -->
<svg version="1.1" id="レイヤー_1" xmlns="http://www.w3.org/2000/svg" xmlns:xlink="http://www.w3.org/1999/xlink" x="0px"
	 y="0px" viewBox="0 0 652 973.2" style="enable-background:new 0 0 652 973.2;" xml:space="preserve">
<style type="text/css">
	.st0{opacity:0.3;}
	.st1{fill:#FFDDDD;}
</style>
<g class="st0">
	<path class="st1" d="M109.2,722.4l183.6-183.6c5.9-6,5.7-15.6-0.3-21.5c-5.9-5.7-15.3-5.7-21.2,0L87.7,700.9
		c-6,5.9-6.1,15.5-0.3,21.5c5.9,6,15.5,6.1,21.5,0.3C109,722.6,109.1,722.5,109.2,722.4z"/>
	<path class="st1" d="M380.9,417.9c4,4,10.6,4,14.7,0l125.2-125.2c3.9-4.2,3.7-10.7-0.4-14.6c-4-3.8-10.2-3.8-14.2,0L380.9,403.2
		C376.9,407.3,376.9,413.9,380.9,417.9z"/>
	<path class="st1" d="M328,489.7c0,2.8-2.3,5.1-5.1,5.1s-5.1-2.3-5.1-5.1s2.3-5.1,5.1-5.1S328,486.9,328,489.7L328,489.7z"/>
	<path class="st1" d="M369.8,451.8c0,8.2-6.6,14.8-14.8,14.8c-8.2,0-14.8-6.6-14.8-14.8c0-8.1,6.6-14.8,14.7-14.8
		C363.2,437,369.8,443.6,369.8,451.8L369.8,451.8z"/>
	<path class="st1" d="M102.9,806.7l183.6-183.6c5.8-6.1,5.5-15.7-0.5-21.5c-5.9-5.6-15.1-5.6-20.9,0L81.4,785.2
		c-5.7,6.1-5.4,15.7,0.7,21.5C88,812.2,97,812.2,102.9,806.7z"/>
	<path class="st1" d="M374.6,502.2c4,4,10.6,4.1,14.6,0l0,0L514.5,377c4.1-4,4.2-10.6,0.2-14.7s-10.6-4.2-14.7-0.2
		c-0.1,0.1-0.1,0.1-0.2,0.2L374.6,487.6C370.6,491.6,370.6,498.2,374.6,502.2z"/>
	<path class="st1" d="M321.8,574c0,2.8-2.3,5.1-5.1,5.1c-2.8,0-5.1-2.3-5.1-5.1s2.3-5.1,5.1-5.1S321.8,571.2,321.8,574L321.8,574z"
		/>
	<path class="st1" d="M363.5,536.1c0,8.2-6.6,14.8-14.8,14.8c-8.2,0-14.8-6.6-14.8-14.8s6.6-14.8,14.8-14.8S363.5,528,363.5,536.1
		L363.5,536.1z"/>
	<path class="st1" d="M96.6,891l183.6-183.6c5.9-6,5.7-15.6-0.3-21.5c-5.9-5.7-15.3-5.7-21.2,0L75.1,869.6c-5.9,5.9-5.9,15.6,0,21.5
		S90.7,897,96.6,891L96.6,891z"/>
	<path class="st1" d="M368.3,586.6c4,4,10.6,4,14.7,0l125.2-125.2c4.1-4,4.1-10.6,0-14.7s-10.6-4.1-14.7,0l0,0L368.3,571.9
		C364.3,576,364.3,582.5,368.3,586.6z"/>
	<path class="st1" d="M315.5,658.4c0,2.8-2.3,5.1-5.1,5.1c-2.8,0-5.1-2.3-5.1-5.1s2.3-5.1,5.1-5.2l0,0
		C313.2,653.2,315.5,655.5,315.5,658.4z"/>
	<path class="st1" d="M357.3,620.5c0,8.2-6.6,14.8-14.8,14.8c-8.2,0-14.8-6.6-14.8-14.8s6.6-14.8,14.8-14.8
		C350.6,605.7,357.3,612.3,357.3,620.5L357.3,620.5z"/>
	<path class="st1" d="M237.4,827.2L421,643.5c5.9-6,5.7-15.6-0.3-21.5c-5.9-5.7-15.3-5.7-21.2,0L215.9,805.7
		c-5.8,6.1-5.6,15.7,0.5,21.5C222.3,832.8,231.6,832.8,237.4,827.2L237.4,827.2z"/>
	<path class="st1" d="M509.2,522.7c4,4,10.6,4,14.6,0L649,397.5c4.2-3.9,4.4-10.5,0.4-14.6s-10.5-4.4-14.6-0.4
		c-0.1,0.1-0.3,0.3-0.4,0.4L509.2,508C505.1,512.1,505.1,518.6,509.2,522.7C509.1,522.7,509.2,522.7,509.2,522.7z"/>
	<path class="st1" d="M456.3,594.5c0,2.8-2.3,5.1-5.1,5.1c-2.8,0-5.1-2.3-5.1-5.1s2.3-5.1,5.1-5.1l0,0
		C454,589.4,456.3,591.6,456.3,594.5z"/>
	<path class="st1" d="M498.1,556.6c0,8.2-6.6,14.8-14.8,14.8c-8.2,0-14.8-6.6-14.8-14.8s6.6-14.8,14.8-14.8S498.1,548.4,498.1,556.6
		C498.1,556.5,498.1,556.6,498.1,556.6z"/>
	<path class="st1" d="M183.5,968.7l183.6-183.6c5.9-5.9,5.9-15.6,0-21.5s-15.6-5.9-21.5,0l0,0L162,947.2c-5.9,5.9-5.9,15.6,0,21.5
		C168,974.6,177.6,974.6,183.5,968.7L183.5,968.7z"/>
	<path class="st1" d="M455.3,664.2c4,4,10.6,4,14.7,0L595.1,539c3.9-4.2,3.7-10.7-0.4-14.6c-4-3.8-10.2-3.8-14.2,0L455.3,649.6
		C451.2,653.6,451.2,660.2,455.3,664.2L455.3,664.2z"/>
	<path class="st1" d="M402.4,736c0,2.8-2.3,5.1-5.1,5.1c-2.8,0-5.1-2.3-5.1-5.1s2.3-5.1,5.1-5.2l0,0
		C400.1,730.9,402.4,733.2,402.4,736z"/>
	<path class="st1" d="M444.2,698.1c0,8.2-6.6,14.8-14.8,14.8c-8.2,0-14.8-6.6-14.8-14.8s6.6-14.8,14.8-14.8S444.2,690,444.2,698.1
		L444.2,698.1z"/>
	<path class="st1" d="M25.9,732.3l183.6-183.7c5.9-6,5.7-15.6-0.3-21.5c-5.9-5.7-15.3-5.7-21.2,0L4.4,710.8
		c-5.8,6.1-5.6,15.7,0.5,21.5C10.8,737.9,20.1,737.9,25.9,732.3L25.9,732.3z"/>
	<path class="st1" d="M297.7,427.9c4,4,10.6,4,14.7,0l125.2-125.2c4-4.1,3.9-10.7-0.2-14.6c-4-3.9-10.4-3.9-14.5,0L297.7,413.2
		C293.6,417.3,293.6,423.8,297.7,427.9z"/>
	<path class="st1" d="M244.8,499.7c0,2.8-2.3,5.1-5.1,5.1s-5.1-2.3-5.1-5.1s2.3-5.1,5.1-5.1l0,0
		C242.5,494.6,244.8,496.9,244.8,499.7z"/>
	<path class="st1" d="M286.6,461.8c0,8.2-6.6,14.8-14.8,14.8c-8.2,0-14.8-6.6-14.8-14.8c0-8.2,6.6-14.8,14.8-14.8l0,0
		C280,447,286.6,453.6,286.6,461.8z"/>
	<path class="st1" d="M25.9,642.4l183.6-183.6c5.9-6,5.7-15.6-0.3-21.5c-5.9-5.7-15.3-5.7-21.2,0L4.4,620.9
		c-5.9,5.9-5.9,15.6,0,21.5C10.4,648.3,20,648.3,25.9,642.4z"/>
	<path class="st1" d="M297.7,337.9c4,4,10.6,4,14.7,0l125.2-125.2c4-4.1,3.9-10.7-0.2-14.7c-4-3.9-10.4-3.9-14.5,0L297.7,323.2
		C293.6,327.3,293.6,333.9,297.7,337.9z"/>
	<path class="st1" d="M244.8,409.7c0,2.8-2.3,5.1-5.1,5.1s-5.1-2.3-5.1-5.1s2.3-5.1,5.1-5.1l0,0
		C242.5,404.5,244.8,406.8,244.8,409.7L244.8,409.7z"/>
	<path class="st1" d="M286.6,371.8c0,8.2-6.6,14.8-14.8,14.8c-8.2,0-14.8-6.6-14.8-14.8c0-8.2,6.6-14.8,14.8-14.8l0,0
		C280,357,286.6,363.6,286.6,371.8z"/>
	<path class="st1" d="M128.6,447.3l183.6-183.6c5.9-6,5.7-15.6-0.3-21.5c-5.9-5.7-15.3-5.7-21.2,0L107.1,425.9
		c-5.9,6-5.7,15.6,0.3,21.5C113.3,453.1,122.7,453.1,128.6,447.3L128.6,447.3z"/>
	<path class="st1" d="M400.3,142.9c4,4,10.6,4,14.7,0L540.2,17.7c4.1-4,4.2-10.6,0.2-14.7s-10.6-4.2-14.7-0.2
		c-0.1,0.1-0.1,0.1-0.2,0.2L400.3,128.2C396.3,132.3,396.3,138.8,400.3,142.9z"/>
	<path class="st1" d="M347.5,214.7c0,2.8-2.3,5.1-5.1,5.1s-5.1-2.3-5.1-5.1s2.3-5.1,5.1-5.1S347.5,211.9,347.5,214.7L347.5,214.7z"
		/>
	<path class="st1" d="M389.2,176.8c0,8.2-6.6,14.8-14.8,14.8c-8.2,0-14.8-6.6-14.8-14.8s6.6-14.8,14.8-14.8S389.2,168.6,389.2,176.8
		L389.2,176.8z"/>
</g>
</svg>
